<mxfile host="app.diagrams.net" agent="Mozilla/5.0 (Macintosh; Intel Mac OS X 10_15_7) AppleWebKit/537.36 (KHTML, like Gecko) Chrome/131.0.0.0 Safari/537.36" version="25.0.3">
  <diagram name="Side-1" id="nUcvuN47wiKsGbL2YALH">
    <mxGraphModel grid="1" page="1" gridSize="10" guides="1" tooltips="1" connect="1" arrows="1" fold="1" pageScale="1" pageWidth="827" pageHeight="1169" math="0" shadow="0">
      <root>
        <mxCell id="0" />
        <mxCell id="1" parent="0" />
        <mxCell id="QC7mSb4ATyLM4-c45ZyH-1" value="Main" style="swimlane;fontStyle=1;align=center;verticalAlign=top;childLayout=stackLayout;horizontal=1;startSize=26;horizontalStack=0;resizeParent=1;resizeParentMax=0;resizeLast=0;collapsible=1;marginBottom=0;whiteSpace=wrap;html=1;" vertex="1" parent="1">
          <mxGeometry x="110" y="1050" width="160" height="52" as="geometry" />
        </mxCell>
        <mxCell id="QC7mSb4ATyLM4-c45ZyH-4" value="ui.startMenu();" style="text;strokeColor=none;fillColor=none;align=left;verticalAlign=top;spacingLeft=4;spacingRight=4;overflow=hidden;rotatable=0;points=[[0,0.5],[1,0.5]];portConstraint=eastwest;whiteSpace=wrap;html=1;" vertex="1" parent="QC7mSb4ATyLM4-c45ZyH-1">
          <mxGeometry y="26" width="160" height="26" as="geometry" />
        </mxCell>
        <mxCell id="QTsUKDH_8yHVYuuBSGEC-1" value="Team" style="swimlane;fontStyle=1;align=center;verticalAlign=top;childLayout=stackLayout;horizontal=1;startSize=26;horizontalStack=0;resizeParent=1;resizeParentMax=0;resizeLast=0;collapsible=1;marginBottom=0;whiteSpace=wrap;html=1;" vertex="1" parent="1">
          <mxGeometry x="375" y="-940" width="330" height="250" as="geometry" />
        </mxCell>
        <mxCell id="QTsUKDH_8yHVYuuBSGEC-2" value="- String teamName&lt;div&gt;- AgeCategory ageCategory&lt;/div&gt;&lt;div&gt;- ArrayList&amp;lt;Person&amp;gt; allSwimmers&lt;/div&gt;" style="text;strokeColor=none;fillColor=none;align=left;verticalAlign=top;spacingLeft=4;spacingRight=4;overflow=hidden;rotatable=0;points=[[0,0.5],[1,0.5]];portConstraint=eastwest;whiteSpace=wrap;html=1;" vertex="1" parent="QTsUKDH_8yHVYuuBSGEC-1">
          <mxGeometry y="26" width="330" height="64" as="geometry" />
        </mxCell>
        <mxCell id="QTsUKDH_8yHVYuuBSGEC-3" value="" style="line;strokeWidth=1;fillColor=none;align=left;verticalAlign=middle;spacingTop=-1;spacingLeft=3;spacingRight=3;rotatable=0;labelPosition=right;points=[];portConstraint=eastwest;strokeColor=inherit;" vertex="1" parent="QTsUKDH_8yHVYuuBSGEC-1">
          <mxGeometry y="90" width="330" height="8" as="geometry" />
        </mxCell>
        <mxCell id="QTsUKDH_8yHVYuuBSGEC-4" value="+ Team (String teamName, AgeCategory ageCategory)&lt;div&gt;+ Team (String teamName)&lt;/div&gt;&lt;div&gt;+ boolean&amp;nbsp; isSenior (Person person)&lt;/div&gt;&lt;div&gt;+ boolean isJunior (Person person)&lt;/div&gt;&lt;div&gt;+ boolean isAgeCategoryValid (Person person)&lt;/div&gt;&lt;div&gt;+ String toString&lt;/div&gt;&lt;div&gt;+ getter methods&lt;/div&gt;&lt;div&gt;+ printAllSwimmers&lt;/div&gt;&lt;div&gt;+ setter method&lt;/div&gt;" style="text;strokeColor=none;fillColor=none;align=left;verticalAlign=top;spacingLeft=4;spacingRight=4;overflow=hidden;rotatable=0;points=[[0,0.5],[1,0.5]];portConstraint=eastwest;whiteSpace=wrap;html=1;" vertex="1" parent="QTsUKDH_8yHVYuuBSGEC-1">
          <mxGeometry y="98" width="330" height="152" as="geometry" />
        </mxCell>
        <mxCell id="QTsUKDH_8yHVYuuBSGEC-5" value="SwimmerType" style="swimlane;fontStyle=1;align=center;verticalAlign=top;childLayout=stackLayout;horizontal=1;startSize=26;horizontalStack=0;resizeParent=1;resizeParentMax=0;resizeLast=0;collapsible=1;marginBottom=0;whiteSpace=wrap;html=1;" vertex="1" parent="1">
          <mxGeometry x="375" y="-570" width="170" height="160" as="geometry" />
        </mxCell>
        <mxCell id="QTsUKDH_8yHVYuuBSGEC-6" value="CASUAL(&quot;Casual&quot;, false)&lt;div&gt;&amp;nbsp;COMPETITIVE(&quot;Competition&quot;, true);&lt;/div&gt;&lt;div&gt;-String displayName&lt;/div&gt;&lt;div&gt;-boolean requireCoach()&lt;/div&gt;" style="text;strokeColor=none;fillColor=none;align=left;verticalAlign=top;spacingLeft=4;spacingRight=4;overflow=hidden;rotatable=0;points=[[0,0.5],[1,0.5]];portConstraint=eastwest;whiteSpace=wrap;html=1;" vertex="1" parent="QTsUKDH_8yHVYuuBSGEC-5">
          <mxGeometry y="26" width="170" height="84" as="geometry" />
        </mxCell>
        <mxCell id="QTsUKDH_8yHVYuuBSGEC-7" value="" style="line;strokeWidth=1;fillColor=none;align=left;verticalAlign=middle;spacingTop=-1;spacingLeft=3;spacingRight=3;rotatable=0;labelPosition=right;points=[];portConstraint=eastwest;strokeColor=inherit;" vertex="1" parent="QTsUKDH_8yHVYuuBSGEC-5">
          <mxGeometry y="110" width="170" height="8" as="geometry" />
        </mxCell>
        <mxCell id="QTsUKDH_8yHVYuuBSGEC-8" value="+getter&lt;div&gt;+boolean requiresCoach();&lt;/div&gt;" style="text;strokeColor=none;fillColor=none;align=left;verticalAlign=top;spacingLeft=4;spacingRight=4;overflow=hidden;rotatable=0;points=[[0,0.5],[1,0.5]];portConstraint=eastwest;whiteSpace=wrap;html=1;" vertex="1" parent="QTsUKDH_8yHVYuuBSGEC-5">
          <mxGeometry y="118" width="170" height="42" as="geometry" />
        </mxCell>
        <mxCell id="QTsUKDH_8yHVYuuBSGEC-9" value="SwimmingDiscipline" style="swimlane;fontStyle=1;align=center;verticalAlign=top;childLayout=stackLayout;horizontal=1;startSize=26;horizontalStack=0;resizeParent=1;resizeParentMax=0;resizeLast=0;collapsible=1;marginBottom=0;whiteSpace=wrap;html=1;" vertex="1" parent="1">
          <mxGeometry x="-190" y="-320" width="160" height="280" as="geometry" />
        </mxCell>
        <mxCell id="QTsUKDH_8yHVYuuBSGEC-10" value="BACK_CRAWL(&quot;Back Crawl&quot;, &quot;Backstroke&quot;)&lt;span style=&quot;background-color: initial;&quot;&gt;&amp;nbsp;&lt;/span&gt;&lt;div&gt;&lt;br&gt;&lt;div&gt;&lt;span style=&quot;background-color: initial;&quot;&gt;BREAST_STROKE(&quot;Breast Stroke&quot;, &quot;Breaststroke&quot;)&lt;/span&gt;&lt;/div&gt;&lt;div&gt;&lt;span style=&quot;background-color: initial;&quot;&gt;&lt;br&gt;&lt;/span&gt;&lt;/div&gt;&lt;div&gt;&lt;span style=&quot;background-color: initial;&quot;&gt;&amp;nbsp;BUTTERFLY(&quot;Butterfly&quot;, &quot;Fly&quot;), CRAWL(&quot;Crawl&quot;, &quot;Freestyle&quot;);&lt;/span&gt;&lt;/div&gt;&lt;/div&gt;&lt;div&gt;&lt;span style=&quot;background-color: initial;&quot;&gt;&lt;br&gt;&lt;/span&gt;&lt;/div&gt;&lt;div&gt;&lt;span style=&quot;background-color: initial;&quot;&gt;-String fullName;&lt;/span&gt;&lt;/div&gt;&lt;div&gt;&lt;span style=&quot;background-color: initial;&quot;&gt;-String shortName;&lt;/span&gt;&lt;/div&gt;" style="text;strokeColor=none;fillColor=none;align=left;verticalAlign=top;spacingLeft=4;spacingRight=4;overflow=hidden;rotatable=0;points=[[0,0.5],[1,0.5]];portConstraint=eastwest;whiteSpace=wrap;html=1;" vertex="1" parent="QTsUKDH_8yHVYuuBSGEC-9">
          <mxGeometry y="26" width="160" height="194" as="geometry" />
        </mxCell>
        <mxCell id="QTsUKDH_8yHVYuuBSGEC-11" value="" style="line;strokeWidth=1;fillColor=none;align=left;verticalAlign=middle;spacingTop=-1;spacingLeft=3;spacingRight=3;rotatable=0;labelPosition=right;points=[];portConstraint=eastwest;strokeColor=inherit;" vertex="1" parent="QTsUKDH_8yHVYuuBSGEC-9">
          <mxGeometry y="220" width="160" height="8" as="geometry" />
        </mxCell>
        <mxCell id="QTsUKDH_8yHVYuuBSGEC-12" value="+getters" style="text;strokeColor=none;fillColor=none;align=left;verticalAlign=top;spacingLeft=4;spacingRight=4;overflow=hidden;rotatable=0;points=[[0,0.5],[1,0.5]];portConstraint=eastwest;whiteSpace=wrap;html=1;" vertex="1" parent="QTsUKDH_8yHVYuuBSGEC-9">
          <mxGeometry y="228" width="160" height="52" as="geometry" />
        </mxCell>
        <mxCell id="QTsUKDH_8yHVYuuBSGEC-13" value="MemberShipStatus" style="swimlane;fontStyle=1;align=center;verticalAlign=top;childLayout=stackLayout;horizontal=1;startSize=26;horizontalStack=0;resizeParent=1;resizeParentMax=0;resizeLast=0;collapsible=1;marginBottom=0;whiteSpace=wrap;html=1;" vertex="1" parent="1">
          <mxGeometry x="-205" y="-940" width="160" height="140" as="geometry" />
        </mxCell>
        <mxCell id="QTsUKDH_8yHVYuuBSGEC-14" value="ACTIVE(&quot;Active Member&quot;)&lt;div&gt;PASSIVE(&quot;Passive Member&quot;);&lt;/div&gt;&lt;div&gt;-String displayName&lt;/div&gt;" style="text;strokeColor=none;fillColor=none;align=left;verticalAlign=top;spacingLeft=4;spacingRight=4;overflow=hidden;rotatable=0;points=[[0,0.5],[1,0.5]];portConstraint=eastwest;whiteSpace=wrap;html=1;" vertex="1" parent="QTsUKDH_8yHVYuuBSGEC-13">
          <mxGeometry y="26" width="160" height="74" as="geometry" />
        </mxCell>
        <mxCell id="QTsUKDH_8yHVYuuBSGEC-15" value="" style="line;strokeWidth=1;fillColor=none;align=left;verticalAlign=middle;spacingTop=-1;spacingLeft=3;spacingRight=3;rotatable=0;labelPosition=right;points=[];portConstraint=eastwest;strokeColor=inherit;" vertex="1" parent="QTsUKDH_8yHVYuuBSGEC-13">
          <mxGeometry y="100" width="160" height="8" as="geometry" />
        </mxCell>
        <mxCell id="QTsUKDH_8yHVYuuBSGEC-16" value="+String getDisplayName();" style="text;strokeColor=none;fillColor=none;align=left;verticalAlign=top;spacingLeft=4;spacingRight=4;overflow=hidden;rotatable=0;points=[[0,0.5],[1,0.5]];portConstraint=eastwest;whiteSpace=wrap;html=1;" vertex="1" parent="QTsUKDH_8yHVYuuBSGEC-13">
          <mxGeometry y="108" width="160" height="32" as="geometry" />
        </mxCell>
        <mxCell id="QTsUKDH_8yHVYuuBSGEC-21" value="UserInterface" style="swimlane;fontStyle=1;align=center;verticalAlign=top;childLayout=stackLayout;horizontal=1;startSize=26;horizontalStack=0;resizeParent=1;resizeParentMax=0;resizeLast=0;collapsible=1;marginBottom=0;whiteSpace=wrap;html=1;" vertex="1" parent="1">
          <mxGeometry x="100" y="600" width="180" height="390" as="geometry" />
        </mxCell>
        <mxCell id="QTsUKDH_8yHVYuuBSGEC-22" value="-Scanner scanner; Controller&amp;nbsp; &amp;nbsp; -Controller controller" style="text;strokeColor=none;fillColor=none;align=left;verticalAlign=top;spacingLeft=4;spacingRight=4;overflow=hidden;rotatable=0;points=[[0,0.5],[1,0.5]];portConstraint=eastwest;whiteSpace=wrap;html=1;" vertex="1" parent="QTsUKDH_8yHVYuuBSGEC-21">
          <mxGeometry y="26" width="180" height="44" as="geometry" />
        </mxCell>
        <mxCell id="QTsUKDH_8yHVYuuBSGEC-23" value="" style="line;strokeWidth=1;fillColor=none;align=left;verticalAlign=middle;spacingTop=-1;spacingLeft=3;spacingRight=3;rotatable=0;labelPosition=right;points=[];portConstraint=eastwest;strokeColor=inherit;" vertex="1" parent="QTsUKDH_8yHVYuuBSGEC-21">
          <mxGeometry y="70" width="180" height="8" as="geometry" />
        </mxCell>
        <mxCell id="QTsUKDH_8yHVYuuBSGEC-24" value="&lt;div&gt;+startMenu();&lt;/div&gt;&lt;div&gt;+administrativeMenu();&lt;/div&gt;&lt;div&gt;+membershipMenu();&lt;/div&gt;&lt;div&gt;+displayFinancialOverview();&lt;/div&gt;&lt;div&gt;+showMemberOverviewMenu();&amp;nbsp;&lt;/div&gt;&lt;div&gt;+addNewMember();&lt;/div&gt;&lt;div&gt;+removeMember(String memberID);&lt;/div&gt;&lt;div&gt;+Member showMemberInfo(String memberID);&lt;/div&gt;&lt;div&gt;+Member administatorEditInfo()&lt;/div&gt;&lt;div&gt;+editMember();&lt;/div&gt;&lt;div&gt;+displayAllTeamMembers();&lt;/div&gt;&lt;div&gt;+printSwimmerInfo(CompetitiveSwimmer swimmer);&lt;/div&gt;&lt;div&gt;+Member printMemberInfo(Member member)&lt;/div&gt;&lt;div&gt;+printMSG(String msg);&lt;/div&gt;&lt;div&gt;&lt;span style=&quot;background-color: initial;&quot;&gt;-greetingsMSG();&lt;/span&gt;&lt;/div&gt;&lt;div&gt;&lt;div&gt;-printHeaderLine();&lt;/div&gt;&lt;div&gt;-waitForEnter();&lt;/div&gt;&lt;div&gt;-int validateInt();&lt;/div&gt;&lt;/div&gt;&lt;div&gt;&lt;br&gt;&lt;/div&gt;&lt;div&gt;&lt;br&gt;&lt;/div&gt;&lt;div&gt;&lt;br&gt;&lt;/div&gt;&lt;div&gt;&lt;br&gt;&lt;/div&gt;&lt;div&gt;&lt;br&gt;&lt;/div&gt;" style="text;strokeColor=none;fillColor=none;align=left;verticalAlign=top;spacingLeft=4;spacingRight=4;overflow=hidden;rotatable=0;points=[[0,0.5],[1,0.5]];portConstraint=eastwest;whiteSpace=wrap;html=1;" vertex="1" parent="QTsUKDH_8yHVYuuBSGEC-21">
          <mxGeometry y="78" width="180" height="312" as="geometry" />
        </mxCell>
        <mxCell id="QTsUKDH_8yHVYuuBSGEC-25" value="Controller" style="swimlane;fontStyle=1;align=center;verticalAlign=top;childLayout=stackLayout;horizontal=1;startSize=26;horizontalStack=0;resizeParent=1;resizeParentMax=0;resizeLast=0;collapsible=1;marginBottom=0;whiteSpace=wrap;html=1;" vertex="1" parent="1">
          <mxGeometry x="80" y="410" width="240" height="130" as="geometry" />
        </mxCell>
        <mxCell id="QTsUKDH_8yHVYuuBSGEC-26" value="-&amp;nbsp; MembershipRegistration Memberships" style="text;strokeColor=none;fillColor=none;align=left;verticalAlign=top;spacingLeft=4;spacingRight=4;overflow=hidden;rotatable=0;points=[[0,0.5],[1,0.5]];portConstraint=eastwest;whiteSpace=wrap;html=1;" vertex="1" parent="QTsUKDH_8yHVYuuBSGEC-25">
          <mxGeometry y="26" width="240" height="26" as="geometry" />
        </mxCell>
        <mxCell id="QTsUKDH_8yHVYuuBSGEC-27" value="" style="line;strokeWidth=1;fillColor=none;align=left;verticalAlign=middle;spacingTop=-1;spacingLeft=3;spacingRight=3;rotatable=0;labelPosition=right;points=[];portConstraint=eastwest;strokeColor=inherit;" vertex="1" parent="QTsUKDH_8yHVYuuBSGEC-25">
          <mxGeometry y="52" width="240" height="8" as="geometry" />
        </mxCell>
        <mxCell id="QTsUKDH_8yHVYuuBSGEC-28" value="+ addMember (Member member)&lt;div&gt;+&amp;nbsp; getter methods&lt;/div&gt;&lt;div&gt;+ ArrayList&amp;lt;String&amp;gt; listOfAllMembers()&lt;/div&gt;&lt;div&gt;+ ArrayList&amp;lt;String&amp;gt; listOfComp()&lt;/div&gt;" style="text;strokeColor=none;fillColor=none;align=left;verticalAlign=top;spacingLeft=4;spacingRight=4;overflow=hidden;rotatable=0;points=[[0,0.5],[1,0.5]];portConstraint=eastwest;whiteSpace=wrap;html=1;" vertex="1" parent="QTsUKDH_8yHVYuuBSGEC-25">
          <mxGeometry y="60" width="240" height="70" as="geometry" />
        </mxCell>
        <mxCell id="QTsUKDH_8yHVYuuBSGEC-33" value="FileHandler" style="swimlane;fontStyle=1;align=center;verticalAlign=top;childLayout=stackLayout;horizontal=1;startSize=26;horizontalStack=0;resizeParent=1;resizeParentMax=0;resizeLast=0;collapsible=1;marginBottom=0;whiteSpace=wrap;html=1;" vertex="1" parent="1">
          <mxGeometry x="530" y="90" width="160" height="164" as="geometry" />
        </mxCell>
        <mxCell id="QTsUKDH_8yHVYuuBSGEC-35" value="" style="line;strokeWidth=1;fillColor=none;align=left;verticalAlign=middle;spacingTop=-1;spacingLeft=3;spacingRight=3;rotatable=0;labelPosition=right;points=[];portConstraint=eastwest;strokeColor=inherit;" vertex="1" parent="QTsUKDH_8yHVYuuBSGEC-33">
          <mxGeometry y="26" width="160" height="8" as="geometry" />
        </mxCell>
        <mxCell id="QTsUKDH_8yHVYuuBSGEC-65" value="+ArrayList&amp;lt;Member&amp;gt; loadMembersFromFile(String fileName)&lt;div&gt;&lt;br&gt;&lt;/div&gt;&lt;div&gt;+saveMembersToFile (ArrayList&amp;lt;Member&amp;gt; membersArrayList, String fileName)&lt;/div&gt;" style="text;strokeColor=none;fillColor=none;align=left;verticalAlign=top;spacingLeft=4;spacingRight=4;overflow=hidden;rotatable=0;points=[[0,0.5],[1,0.5]];portConstraint=eastwest;whiteSpace=wrap;html=1;" vertex="1" parent="QTsUKDH_8yHVYuuBSGEC-33">
          <mxGeometry y="60" width="160" height="130" as="geometry" />
        </mxCell>
        <mxCell id="W20NLJ6wj8PO3DIGxujV-39" style="edgeStyle=orthogonalEdgeStyle;rounded=0;orthogonalLoop=1;jettySize=auto;html=1;entryX=0.5;entryY=0;entryDx=0;entryDy=0;" edge="1" parent="1" source="QTsUKDH_8yHVYuuBSGEC-37" target="QTsUKDH_8yHVYuuBSGEC-53">
          <mxGeometry relative="1" as="geometry" />
        </mxCell>
        <mxCell id="QTsUKDH_8yHVYuuBSGEC-37" value="Member" style="swimlane;fontStyle=1;align=center;verticalAlign=top;childLayout=stackLayout;horizontal=1;startSize=26;horizontalStack=0;resizeParent=1;resizeParentMax=0;resizeLast=0;collapsible=1;marginBottom=0;whiteSpace=wrap;html=1;" vertex="1" parent="1">
          <mxGeometry x="90" y="-940" width="190" height="290" as="geometry" />
        </mxCell>
        <mxCell id="QTsUKDH_8yHVYuuBSGEC-38" value="-String memberID&lt;div&gt;-Enum&amp;lt;MembershipStatus&amp;gt; membershipStatus&lt;/div&gt;&lt;div&gt;-double membershipFee&lt;/div&gt;&lt;div&gt;-double isInArrears&lt;/div&gt;&lt;div&gt;-swimmerType swimmerType&lt;/div&gt;" style="text;strokeColor=none;fillColor=none;align=left;verticalAlign=top;spacingLeft=4;spacingRight=4;overflow=hidden;rotatable=0;points=[[0,0.5],[1,0.5]];portConstraint=eastwest;whiteSpace=wrap;html=1;" vertex="1" parent="QTsUKDH_8yHVYuuBSGEC-37">
          <mxGeometry y="26" width="190" height="94" as="geometry" />
        </mxCell>
        <mxCell id="QTsUKDH_8yHVYuuBSGEC-39" value="" style="line;strokeWidth=1;fillColor=none;align=left;verticalAlign=middle;spacingTop=-1;spacingLeft=3;spacingRight=3;rotatable=0;labelPosition=right;points=[];portConstraint=eastwest;strokeColor=inherit;" vertex="1" parent="QTsUKDH_8yHVYuuBSGEC-37">
          <mxGeometry y="120" width="190" height="30" as="geometry" />
        </mxCell>
        <mxCell id="QTsUKDH_8yHVYuuBSGEC-40" value="&lt;div&gt;+getter methods&lt;/div&gt;&lt;div&gt;+setter methods&lt;/div&gt;+double getMembershipFee();&lt;div&gt;-String generateMemberIDRandom(String firstName, String lastName);&lt;/div&gt;&lt;div&gt;+changeMembershipToPassive();&lt;/div&gt;&lt;div&gt;+changeMembershipToActive();&lt;/div&gt;&lt;div&gt;+String toString();&lt;/div&gt;" style="text;strokeColor=none;fillColor=none;align=left;verticalAlign=top;spacingLeft=4;spacingRight=4;overflow=hidden;rotatable=0;points=[[0,0.5],[1,0.5]];portConstraint=eastwest;whiteSpace=wrap;html=1;" vertex="1" parent="QTsUKDH_8yHVYuuBSGEC-37">
          <mxGeometry y="150" width="190" height="140" as="geometry" />
        </mxCell>
        <mxCell id="QTsUKDH_8yHVYuuBSGEC-41" value="AgeCategory" style="swimlane;fontStyle=1;align=center;verticalAlign=top;childLayout=stackLayout;horizontal=1;startSize=26;horizontalStack=0;resizeParent=1;resizeParentMax=0;resizeLast=0;collapsible=1;marginBottom=0;whiteSpace=wrap;html=1;" vertex="1" parent="1">
          <mxGeometry x="-190" y="-570" width="190" height="210" as="geometry" />
        </mxCell>
        <mxCell id="QTsUKDH_8yHVYuuBSGEC-42" value="JUNIOR(0, 17, &quot;Junior Swimmer&quot;),&amp;nbsp;&lt;div&gt;SENIOR(18, (int) POSITIVE_INFINITY, &quot;Senior Swimmer&quot;);&lt;/div&gt;&lt;div&gt;&lt;span style=&quot;background-color: initial;&quot;&gt;-int minAge;&amp;nbsp;&lt;/span&gt;&lt;/div&gt;&lt;div&gt;-final int maxAge; private ----String displayName;&lt;/div&gt;&lt;div&gt;&lt;br&gt;&lt;/div&gt;&lt;div&gt;&lt;br&gt;&lt;/div&gt;" style="text;strokeColor=none;fillColor=none;align=left;verticalAlign=top;spacingLeft=4;spacingRight=4;overflow=hidden;rotatable=0;points=[[0,0.5],[1,0.5]];portConstraint=eastwest;whiteSpace=wrap;html=1;" vertex="1" parent="QTsUKDH_8yHVYuuBSGEC-41">
          <mxGeometry y="26" width="190" height="124" as="geometry" />
        </mxCell>
        <mxCell id="QTsUKDH_8yHVYuuBSGEC-43" value="" style="line;strokeWidth=1;fillColor=none;align=left;verticalAlign=middle;spacingTop=-1;spacingLeft=3;spacingRight=3;rotatable=0;labelPosition=right;points=[];portConstraint=eastwest;strokeColor=inherit;" vertex="1" parent="QTsUKDH_8yHVYuuBSGEC-41">
          <mxGeometry y="150" width="190" height="8" as="geometry" />
        </mxCell>
        <mxCell id="W20NLJ6wj8PO3DIGxujV-32" value="+getters&lt;div&gt;+setters&lt;/div&gt;&lt;div&gt;+AgeCategory fromAge(int age);&lt;/div&gt;" style="text;strokeColor=none;fillColor=none;align=left;verticalAlign=top;spacingLeft=4;spacingRight=4;overflow=hidden;rotatable=0;points=[[0,0.5],[1,0.5]];portConstraint=eastwest;whiteSpace=wrap;html=1;" vertex="1" parent="QTsUKDH_8yHVYuuBSGEC-41">
          <mxGeometry y="158" width="190" height="52" as="geometry" />
        </mxCell>
        <mxCell id="QTsUKDH_8yHVYuuBSGEC-45" value="MembershipRegistation" style="swimlane;fontStyle=1;align=center;verticalAlign=top;childLayout=stackLayout;horizontal=1;startSize=26;horizontalStack=0;resizeParent=1;resizeParentMax=0;resizeLast=0;collapsible=1;marginBottom=0;whiteSpace=wrap;html=1;" vertex="1" parent="1">
          <mxGeometry x="40" y="90" width="300" height="190" as="geometry" />
        </mxCell>
        <mxCell id="QTsUKDH_8yHVYuuBSGEC-46" value="- ArrayList&amp;lt;Member&amp;gt; memberList&lt;div&gt;- ArrayList&amp;lt;Team&amp;gt; teams&lt;/div&gt;&lt;div&gt;- FileHandler fileHandler&lt;/div&gt;" style="text;strokeColor=none;fillColor=none;align=left;verticalAlign=top;spacingLeft=4;spacingRight=4;overflow=hidden;rotatable=0;points=[[0,0.5],[1,0.5]];portConstraint=eastwest;whiteSpace=wrap;html=1;" vertex="1" parent="QTsUKDH_8yHVYuuBSGEC-45">
          <mxGeometry y="26" width="300" height="54" as="geometry" />
        </mxCell>
        <mxCell id="QTsUKDH_8yHVYuuBSGEC-47" value="" style="line;strokeWidth=1;fillColor=none;align=left;verticalAlign=middle;spacingTop=-1;spacingLeft=3;spacingRight=3;rotatable=0;labelPosition=right;points=[];portConstraint=eastwest;strokeColor=inherit;" vertex="1" parent="QTsUKDH_8yHVYuuBSGEC-45">
          <mxGeometry y="80" width="300" height="8" as="geometry" />
        </mxCell>
        <mxCell id="QTsUKDH_8yHVYuuBSGEC-48" value="+ MembershipRegistration ()&lt;div&gt;+ boolean addMember (Member member)&lt;/div&gt;&lt;div&gt;+public boolean removeMember&lt;/div&gt;&lt;div&gt;+ getter methods&amp;nbsp;&lt;/div&gt;&lt;div&gt;+ boolean addTeam (Team team)&lt;/div&gt;&lt;div&gt;+addMemberToTeam(Member member, Team team)&lt;/div&gt;" style="text;strokeColor=none;fillColor=none;align=left;verticalAlign=top;spacingLeft=4;spacingRight=4;overflow=hidden;rotatable=0;points=[[0,0.5],[1,0.5]];portConstraint=eastwest;whiteSpace=wrap;html=1;" vertex="1" parent="QTsUKDH_8yHVYuuBSGEC-45">
          <mxGeometry y="88" width="300" height="102" as="geometry" />
        </mxCell>
        <mxCell id="QTsUKDH_8yHVYuuBSGEC-49" value="Cashier" style="swimlane;fontStyle=1;align=center;verticalAlign=top;childLayout=stackLayout;horizontal=1;startSize=26;horizontalStack=0;resizeParent=1;resizeParentMax=0;resizeLast=0;collapsible=1;marginBottom=0;whiteSpace=wrap;html=1;" vertex="1" parent="1">
          <mxGeometry x="-285" y="200" width="240" height="240" as="geometry" />
        </mxCell>
        <mxCell id="QTsUKDH_8yHVYuuBSGEC-50" value="-ArrayList&amp;lt;Member&amp;gt; allMembers;&amp;nbsp;&lt;div&gt;-ArrayList&amp;lt;Member&amp;gt; allMembersInArrears;&lt;/div&gt;&lt;div&gt;&lt;br&gt;&lt;/div&gt;" style="text;strokeColor=none;fillColor=none;align=left;verticalAlign=top;spacingLeft=4;spacingRight=4;overflow=hidden;rotatable=0;points=[[0,0.5],[1,0.5]];portConstraint=eastwest;whiteSpace=wrap;html=1;" vertex="1" parent="QTsUKDH_8yHVYuuBSGEC-49">
          <mxGeometry y="26" width="240" height="44" as="geometry" />
        </mxCell>
        <mxCell id="QTsUKDH_8yHVYuuBSGEC-51" value="" style="line;strokeWidth=1;fillColor=none;align=left;verticalAlign=middle;spacingTop=-1;spacingLeft=3;spacingRight=3;rotatable=0;labelPosition=right;points=[];portConstraint=eastwest;strokeColor=inherit;" vertex="1" parent="QTsUKDH_8yHVYuuBSGEC-49">
          <mxGeometry y="70" width="240" height="8" as="geometry" />
        </mxCell>
        <mxCell id="QTsUKDH_8yHVYuuBSGEC-52" value="&lt;span style=&quot;background-color: initial;&quot;&gt;+calculateMembershipFee(Member member)&lt;/span&gt;&lt;div&gt;&lt;span style=&quot;background-color: initial;&quot;&gt;+addMember(Member member)&lt;/span&gt;&lt;/div&gt;&lt;div&gt;&lt;span style=&quot;background-color: initial;&quot;&gt;+removeMember(Member member)&lt;/span&gt;&lt;/div&gt;&lt;div&gt;&lt;span style=&quot;background-color: initial;&quot;&gt;+addMemberInArrear(Member member)&lt;/span&gt;&lt;/div&gt;&lt;div&gt;+removeMemberInArrear(Member member)&lt;span style=&quot;background-color: initial;&quot;&gt;&lt;/span&gt;&lt;/div&gt;&lt;div&gt;+ArrayList&amp;lt;Member&amp;gt; membersInArrears()&lt;/div&gt;&lt;div&gt;+getTotalOfDebt();&lt;/div&gt;&lt;div&gt;+&lt;span style=&quot;background-color: initial;&quot;&gt;getTotalGeneratedIncome();&lt;/span&gt;&lt;/div&gt;&lt;div&gt;&lt;span style=&quot;background-color: initial;&quot;&gt;&lt;br&gt;&lt;/span&gt;&lt;/div&gt;&lt;div&gt;&lt;br&gt;&lt;/div&gt;" style="text;strokeColor=none;fillColor=none;align=left;verticalAlign=top;spacingLeft=4;spacingRight=4;overflow=hidden;rotatable=0;points=[[0,0.5],[1,0.5]];portConstraint=eastwest;whiteSpace=wrap;html=1;" vertex="1" parent="QTsUKDH_8yHVYuuBSGEC-49">
          <mxGeometry y="78" width="240" height="162" as="geometry" />
        </mxCell>
        <mxCell id="W20NLJ6wj8PO3DIGxujV-50" style="edgeStyle=orthogonalEdgeStyle;rounded=0;orthogonalLoop=1;jettySize=auto;html=1;entryX=0.5;entryY=0;entryDx=0;entryDy=0;" edge="1" parent="1" source="QTsUKDH_8yHVYuuBSGEC-53" target="QTsUKDH_8yHVYuuBSGEC-45">
          <mxGeometry relative="1" as="geometry" />
        </mxCell>
        <mxCell id="QTsUKDH_8yHVYuuBSGEC-53" value="CompetetitiveSwimmer" style="swimlane;fontStyle=1;align=center;verticalAlign=top;childLayout=stackLayout;horizontal=1;startSize=26;horizontalStack=0;resizeParent=1;resizeParentMax=0;resizeLast=0;collapsible=1;marginBottom=0;whiteSpace=wrap;html=1;" vertex="1" parent="1">
          <mxGeometry x="50" y="-320" width="270" height="320" as="geometry" />
        </mxCell>
        <mxCell id="QTsUKDH_8yHVYuuBSGEC-54" value="-Team team&lt;div&gt;-Coach coach&lt;/div&gt;&lt;div&gt;-List&amp;lt;Result&amp;gt; results;&lt;/div&gt;&lt;div&gt;-ArrayList &amp;lt;SwimmingDiscipline) disciplines;&lt;/div&gt;&lt;div&gt;-SwimmerType swimmerType&lt;/div&gt;&lt;div&gt;&lt;br&gt;&lt;/div&gt;" style="text;strokeColor=none;fillColor=none;align=left;verticalAlign=top;spacingLeft=4;spacingRight=4;overflow=hidden;rotatable=0;points=[[0,0.5],[1,0.5]];portConstraint=eastwest;whiteSpace=wrap;html=1;" vertex="1" parent="QTsUKDH_8yHVYuuBSGEC-53">
          <mxGeometry y="26" width="270" height="84" as="geometry" />
        </mxCell>
        <mxCell id="QTsUKDH_8yHVYuuBSGEC-55" value="" style="line;strokeWidth=1;fillColor=none;align=left;verticalAlign=middle;spacingTop=-1;spacingLeft=3;spacingRight=3;rotatable=0;labelPosition=right;points=[];portConstraint=eastwest;strokeColor=inherit;" vertex="1" parent="QTsUKDH_8yHVYuuBSGEC-53">
          <mxGeometry y="110" width="270" height="8" as="geometry" />
        </mxCell>
        <mxCell id="W20NLJ6wj8PO3DIGxujV-48" style="edgeStyle=orthogonalEdgeStyle;rounded=0;orthogonalLoop=1;jettySize=auto;html=1;exitX=0;exitY=0.5;exitDx=0;exitDy=0;" edge="1" parent="QTsUKDH_8yHVYuuBSGEC-53" source="QTsUKDH_8yHVYuuBSGEC-56">
          <mxGeometry relative="1" as="geometry">
            <mxPoint x="-10" y="218.7692307692305" as="targetPoint" />
          </mxGeometry>
        </mxCell>
        <mxCell id="QTsUKDH_8yHVYuuBSGEC-56" value="+setters&lt;div&gt;+getters&lt;/div&gt;&lt;div&gt;+String toString&lt;/div&gt;&lt;div&gt;+printAllCompSwimmersBestDiscipline&lt;/div&gt;&lt;div&gt;(List&amp;lt;CompetitiveSwimmer&amp;gt; swimmers)&lt;/div&gt;&lt;div&gt;+printTop5SwimmersByDiscipline&lt;/div&gt;&lt;div&gt;(List&amp;lt;CompetitiveSwimmer&amp;gt; swimmers)&lt;/div&gt;&lt;div&gt;-addAndSortTopResults&lt;/div&gt;&lt;div&gt;(List&amp;lt;Result&amp;gt; topResults, Result newResult)&lt;/div&gt;&lt;div&gt;+sortDisciplinesByPerformance()&lt;/div&gt;&lt;div&gt;+getBestTimeForEachDiscipline&lt;/div&gt;&lt;div&gt;(SwimmingDiscipline discipline)&lt;/div&gt;&lt;div&gt;&lt;span style=&quot;background-color: initial;&quot;&gt;+addResult(Result result);&lt;/span&gt;&lt;/div&gt;&lt;div&gt;&lt;br&gt;&lt;/div&gt;&lt;div&gt;&lt;br&gt;&lt;/div&gt;&lt;div&gt;&lt;br&gt;&lt;/div&gt;&lt;div&gt;&lt;br&gt;&lt;/div&gt;" style="text;strokeColor=none;fillColor=none;align=left;verticalAlign=top;spacingLeft=4;spacingRight=4;overflow=hidden;rotatable=0;points=[[0,0.5],[1,0.5]];portConstraint=eastwest;whiteSpace=wrap;html=1;" vertex="1" parent="QTsUKDH_8yHVYuuBSGEC-53">
          <mxGeometry y="118" width="270" height="202" as="geometry" />
        </mxCell>
        <mxCell id="QTsUKDH_8yHVYuuBSGEC-57" value="Person" style="swimlane;fontStyle=1;align=center;verticalAlign=top;childLayout=stackLayout;horizontal=1;startSize=26;horizontalStack=0;resizeParent=1;resizeParentMax=0;resizeLast=0;collapsible=1;marginBottom=0;whiteSpace=wrap;html=1;" vertex="1" parent="1">
          <mxGeometry x="105" y="-1186" width="160" height="210" as="geometry" />
        </mxCell>
        <mxCell id="QTsUKDH_8yHVYuuBSGEC-58" value="# String firstName&lt;div&gt;# String lastName&lt;/div&gt;&lt;div&gt;# LocalDate dateOfBirth&lt;/div&gt;&lt;div&gt;# String email&lt;/div&gt;&lt;div&gt;# String phoneNumber&lt;/div&gt;&lt;div&gt;# String address&lt;/div&gt;" style="text;strokeColor=none;fillColor=none;align=left;verticalAlign=top;spacingLeft=4;spacingRight=4;overflow=hidden;rotatable=0;points=[[0,0.5],[1,0.5]];portConstraint=eastwest;whiteSpace=wrap;html=1;" vertex="1" parent="QTsUKDH_8yHVYuuBSGEC-57">
          <mxGeometry y="26" width="160" height="104" as="geometry" />
        </mxCell>
        <mxCell id="QTsUKDH_8yHVYuuBSGEC-59" value="" style="line;strokeWidth=1;fillColor=none;align=left;verticalAlign=middle;spacingTop=-1;spacingLeft=3;spacingRight=3;rotatable=0;labelPosition=right;points=[];portConstraint=eastwest;strokeColor=inherit;" vertex="1" parent="QTsUKDH_8yHVYuuBSGEC-57">
          <mxGeometry y="130" width="160" height="8" as="geometry" />
        </mxCell>
        <mxCell id="QTsUKDH_8yHVYuuBSGEC-60" value="+ getter methods&lt;div&gt;+ setter methods&lt;/div&gt;&lt;div&gt;+int calculateAge&lt;/div&gt;&lt;div&gt;+ String toString&lt;/div&gt;&lt;div&gt;&lt;br&gt;&lt;/div&gt;" style="text;strokeColor=none;fillColor=none;align=left;verticalAlign=top;spacingLeft=4;spacingRight=4;overflow=hidden;rotatable=0;points=[[0,0.5],[1,0.5]];portConstraint=eastwest;whiteSpace=wrap;html=1;" vertex="1" parent="QTsUKDH_8yHVYuuBSGEC-57">
          <mxGeometry y="138" width="160" height="72" as="geometry" />
        </mxCell>
        <mxCell id="QTsUKDH_8yHVYuuBSGEC-61" value="Result" style="swimlane;fontStyle=1;align=center;verticalAlign=top;childLayout=stackLayout;horizontal=1;startSize=26;horizontalStack=0;resizeParent=1;resizeParentMax=0;resizeLast=0;collapsible=1;marginBottom=0;whiteSpace=wrap;html=1;" vertex="1" parent="1">
          <mxGeometry x="355" y="-270" width="190" height="160" as="geometry" />
        </mxCell>
        <mxCell id="QTsUKDH_8yHVYuuBSGEC-62" value="- SwimmingDiscipline discipline&lt;div&gt;- double time&lt;/div&gt;&lt;div&gt;- LocalDate localDate&lt;/div&gt;&lt;div&gt;- CompetitiveSwimmer swimmer&lt;/div&gt;" style="text;strokeColor=none;fillColor=none;align=left;verticalAlign=top;spacingLeft=4;spacingRight=4;overflow=hidden;rotatable=0;points=[[0,0.5],[1,0.5]];portConstraint=eastwest;whiteSpace=wrap;html=1;" vertex="1" parent="QTsUKDH_8yHVYuuBSGEC-61">
          <mxGeometry y="26" width="190" height="74" as="geometry" />
        </mxCell>
        <mxCell id="QTsUKDH_8yHVYuuBSGEC-63" value="" style="line;strokeWidth=1;fillColor=none;align=left;verticalAlign=middle;spacingTop=-1;spacingLeft=3;spacingRight=3;rotatable=0;labelPosition=right;points=[];portConstraint=eastwest;strokeColor=inherit;" vertex="1" parent="QTsUKDH_8yHVYuuBSGEC-61">
          <mxGeometry y="100" width="190" height="8" as="geometry" />
        </mxCell>
        <mxCell id="QTsUKDH_8yHVYuuBSGEC-64" value="+ getter methods&lt;div&gt;+ setter methods&lt;/div&gt;&lt;div&gt;+&amp;nbsp; String toString&lt;/div&gt;" style="text;strokeColor=none;fillColor=none;align=left;verticalAlign=top;spacingLeft=4;spacingRight=4;overflow=hidden;rotatable=0;points=[[0,0.5],[1,0.5]];portConstraint=eastwest;whiteSpace=wrap;html=1;" vertex="1" parent="QTsUKDH_8yHVYuuBSGEC-61">
          <mxGeometry y="108" width="190" height="52" as="geometry" />
        </mxCell>
        <mxCell id="QTsUKDH_8yHVYuuBSGEC-84" value="Coach" style="swimlane;fontStyle=1;align=center;verticalAlign=top;childLayout=stackLayout;horizontal=1;startSize=26;horizontalStack=0;resizeParent=1;resizeParentMax=0;resizeLast=0;collapsible=1;marginBottom=0;whiteSpace=wrap;html=1;" vertex="1" parent="1">
          <mxGeometry x="460" y="-1080" width="160" height="104" as="geometry" />
        </mxCell>
        <mxCell id="QTsUKDH_8yHVYuuBSGEC-85" value="-String coachID&lt;div&gt;-Team assignedTeam&lt;/div&gt;" style="text;strokeColor=none;fillColor=none;align=left;verticalAlign=top;spacingLeft=4;spacingRight=4;overflow=hidden;rotatable=0;points=[[0,0.5],[1,0.5]];portConstraint=eastwest;whiteSpace=wrap;html=1;" vertex="1" parent="QTsUKDH_8yHVYuuBSGEC-84">
          <mxGeometry y="26" width="160" height="44" as="geometry" />
        </mxCell>
        <mxCell id="QTsUKDH_8yHVYuuBSGEC-86" value="" style="line;strokeWidth=1;fillColor=none;align=left;verticalAlign=middle;spacingTop=-1;spacingLeft=3;spacingRight=3;rotatable=0;labelPosition=right;points=[];portConstraint=eastwest;strokeColor=inherit;" vertex="1" parent="QTsUKDH_8yHVYuuBSGEC-84">
          <mxGeometry y="70" width="160" height="8" as="geometry" />
        </mxCell>
        <mxCell id="QTsUKDH_8yHVYuuBSGEC-87" value="&lt;span style=&quot;text-align: center; text-wrap-mode: nowrap;&quot;&gt;+String toString()&lt;/span&gt;" style="text;strokeColor=none;fillColor=none;align=left;verticalAlign=top;spacingLeft=4;spacingRight=4;overflow=hidden;rotatable=0;points=[[0,0.5],[1,0.5]];portConstraint=eastwest;whiteSpace=wrap;html=1;" vertex="1" parent="QTsUKDH_8yHVYuuBSGEC-84">
          <mxGeometry y="78" width="160" height="26" as="geometry" />
        </mxCell>
        <mxCell id="W20NLJ6wj8PO3DIGxujV-35" style="edgeStyle=orthogonalEdgeStyle;rounded=0;orthogonalLoop=1;jettySize=auto;html=1;entryX=0.5;entryY=0;entryDx=0;entryDy=0;" edge="1" parent="1" source="QTsUKDH_8yHVYuuBSGEC-58" target="QTsUKDH_8yHVYuuBSGEC-84">
          <mxGeometry relative="1" as="geometry" />
        </mxCell>
        <mxCell id="W20NLJ6wj8PO3DIGxujV-37" style="edgeStyle=orthogonalEdgeStyle;rounded=0;orthogonalLoop=1;jettySize=auto;html=1;entryX=-0.005;entryY=0.406;entryDx=0;entryDy=0;entryPerimeter=0;" edge="1" parent="1" source="QTsUKDH_8yHVYuuBSGEC-14" target="QTsUKDH_8yHVYuuBSGEC-38">
          <mxGeometry relative="1" as="geometry" />
        </mxCell>
        <mxCell id="W20NLJ6wj8PO3DIGxujV-40" value="" style="endArrow=classic;startArrow=classic;html=1;rounded=0;entryX=-0.013;entryY=1.002;entryDx=0;entryDy=0;entryPerimeter=0;exitX=1;exitY=0;exitDx=0;exitDy=0;" edge="1" parent="1" source="QTsUKDH_8yHVYuuBSGEC-41" target="QTsUKDH_8yHVYuuBSGEC-40">
          <mxGeometry width="50" height="50" relative="1" as="geometry">
            <mxPoint x="-50" y="-210" as="sourcePoint" />
            <mxPoint y="-260" as="targetPoint" />
          </mxGeometry>
        </mxCell>
        <mxCell id="W20NLJ6wj8PO3DIGxujV-41" value="" style="endArrow=classic;startArrow=classic;html=1;rounded=0;entryX=1;entryY=0.971;entryDx=0;entryDy=0;entryPerimeter=0;exitX=0;exitY=0;exitDx=0;exitDy=0;" edge="1" parent="1" source="QTsUKDH_8yHVYuuBSGEC-5" target="QTsUKDH_8yHVYuuBSGEC-40">
          <mxGeometry width="50" height="50" relative="1" as="geometry">
            <mxPoint x="410" y="-210" as="sourcePoint" />
            <mxPoint x="460" y="-260" as="targetPoint" />
          </mxGeometry>
        </mxCell>
        <mxCell id="W20NLJ6wj8PO3DIGxujV-42" value="" style="endArrow=classic;startArrow=classic;html=1;rounded=0;entryX=1;entryY=0.962;entryDx=0;entryDy=0;entryPerimeter=0;exitX=0;exitY=0;exitDx=0;exitDy=0;" edge="1" parent="1" source="QTsUKDH_8yHVYuuBSGEC-53" target="W20NLJ6wj8PO3DIGxujV-32">
          <mxGeometry width="50" height="50" relative="1" as="geometry">
            <mxPoint x="40" y="195" as="sourcePoint" />
            <mxPoint x="-96" y="90" as="targetPoint" />
          </mxGeometry>
        </mxCell>
        <mxCell id="W20NLJ6wj8PO3DIGxujV-43" value="" style="endArrow=classic;startArrow=classic;html=1;rounded=0;entryX=-0.024;entryY=1.099;entryDx=0;entryDy=0;entryPerimeter=0;exitX=1;exitY=0;exitDx=0;exitDy=0;" edge="1" parent="1" source="QTsUKDH_8yHVYuuBSGEC-53" target="QTsUKDH_8yHVYuuBSGEC-8">
          <mxGeometry width="50" height="50" relative="1" as="geometry">
            <mxPoint x="310" y="200" as="sourcePoint" />
            <mxPoint x="174" y="95" as="targetPoint" />
          </mxGeometry>
        </mxCell>
        <mxCell id="W20NLJ6wj8PO3DIGxujV-47" style="edgeStyle=orthogonalEdgeStyle;rounded=0;orthogonalLoop=1;jettySize=auto;html=1;entryX=0.002;entryY=0.11;entryDx=0;entryDy=0;entryPerimeter=0;" edge="1" parent="1" source="QTsUKDH_8yHVYuuBSGEC-9" target="QTsUKDH_8yHVYuuBSGEC-56">
          <mxGeometry relative="1" as="geometry" />
        </mxCell>
        <mxCell id="QTsUKDH_8yHVYuuBSGEC-91" value="" style="endArrow=classic;html=1;rounded=0;exitX=0.512;exitY=1;exitDx=0;exitDy=0;exitPerimeter=0;entryX=0.5;entryY=0;entryDx=0;entryDy=0;" edge="1" parent="1" source="QTsUKDH_8yHVYuuBSGEC-87" target="QTsUKDH_8yHVYuuBSGEC-1">
          <mxGeometry width="50" height="50" relative="1" as="geometry">
            <mxPoint x="290" y="-830" as="sourcePoint" />
            <mxPoint x="340" y="-880" as="targetPoint" />
          </mxGeometry>
        </mxCell>
        <mxCell id="W20NLJ6wj8PO3DIGxujV-51" style="edgeStyle=orthogonalEdgeStyle;rounded=0;orthogonalLoop=1;jettySize=auto;html=1;entryX=0.997;entryY=0.104;entryDx=0;entryDy=0;entryPerimeter=0;" edge="1" parent="1" source="QTsUKDH_8yHVYuuBSGEC-65" target="QTsUKDH_8yHVYuuBSGEC-48">
          <mxGeometry relative="1" as="geometry" />
        </mxCell>
        <mxCell id="QTsUKDH_8yHVYuuBSGEC-93" value="" style="endArrow=classic;html=1;rounded=0;exitX=0;exitY=0.5;exitDx=0;exitDy=0;entryX=1.006;entryY=-0.023;entryDx=0;entryDy=0;entryPerimeter=0;" edge="1" parent="1" source="QTsUKDH_8yHVYuuBSGEC-62" target="QTsUKDH_8yHVYuuBSGEC-56">
          <mxGeometry width="50" height="50" relative="1" as="geometry">
            <mxPoint x="270" y="-50" as="sourcePoint" />
            <mxPoint x="320" y="-100" as="targetPoint" />
          </mxGeometry>
        </mxCell>
        <mxCell id="W20NLJ6wj8PO3DIGxujV-53" style="edgeStyle=orthogonalEdgeStyle;rounded=0;orthogonalLoop=1;jettySize=auto;html=1;entryX=-0.012;entryY=0.055;entryDx=0;entryDy=0;entryPerimeter=0;" edge="1" parent="1" source="QTsUKDH_8yHVYuuBSGEC-49" target="QTsUKDH_8yHVYuuBSGEC-48">
          <mxGeometry relative="1" as="geometry" />
        </mxCell>
        <mxCell id="W20NLJ6wj8PO3DIGxujV-54" style="edgeStyle=orthogonalEdgeStyle;rounded=0;orthogonalLoop=1;jettySize=auto;html=1;entryX=-0.007;entryY=0.092;entryDx=0;entryDy=0;entryPerimeter=0;" edge="1" parent="1" source="QTsUKDH_8yHVYuuBSGEC-52" target="QTsUKDH_8yHVYuuBSGEC-28">
          <mxGeometry relative="1" as="geometry">
            <Array as="points">
              <mxPoint y="339" />
              <mxPoint y="476" />
            </Array>
          </mxGeometry>
        </mxCell>
        <mxCell id="W20NLJ6wj8PO3DIGxujV-55" style="edgeStyle=orthogonalEdgeStyle;rounded=0;orthogonalLoop=1;jettySize=auto;html=1;entryX=0.563;entryY=-0.013;entryDx=0;entryDy=0;entryPerimeter=0;" edge="1" parent="1" source="QTsUKDH_8yHVYuuBSGEC-25" target="QTsUKDH_8yHVYuuBSGEC-21">
          <mxGeometry relative="1" as="geometry" />
        </mxCell>
        <mxCell id="QTsUKDH_8yHVYuuBSGEC-95" value="" style="endArrow=classic;html=1;rounded=0;exitX=0.483;exitY=1.003;exitDx=0;exitDy=0;exitPerimeter=0;entryX=0.5;entryY=0;entryDx=0;entryDy=0;" edge="1" parent="1" source="QTsUKDH_8yHVYuuBSGEC-60" target="QTsUKDH_8yHVYuuBSGEC-37">
          <mxGeometry width="50" height="50" relative="1" as="geometry">
            <mxPoint x="260" y="-970" as="sourcePoint" />
            <mxPoint x="310" y="-1020" as="targetPoint" />
          </mxGeometry>
        </mxCell>
        <mxCell id="W20NLJ6wj8PO3DIGxujV-58" style="edgeStyle=orthogonalEdgeStyle;rounded=0;orthogonalLoop=1;jettySize=auto;html=1;entryX=0.464;entryY=-0.016;entryDx=0;entryDy=0;entryPerimeter=0;" edge="1" parent="1" source="QTsUKDH_8yHVYuuBSGEC-45" target="QTsUKDH_8yHVYuuBSGEC-25">
          <mxGeometry relative="1" as="geometry" />
        </mxCell>
        <mxCell id="QTsUKDH_8yHVYuuBSGEC-96" value="" style="endArrow=classic;html=1;rounded=0;exitX=0.498;exitY=1.005;exitDx=0;exitDy=0;exitPerimeter=0;entryX=0.5;entryY=0;entryDx=0;entryDy=0;" edge="1" parent="1" source="QTsUKDH_8yHVYuuBSGEC-24" target="QC7mSb4ATyLM4-c45ZyH-1">
          <mxGeometry width="50" height="50" relative="1" as="geometry">
            <mxPoint x="260" y="1010" as="sourcePoint" />
            <mxPoint x="310" y="960" as="targetPoint" />
          </mxGeometry>
        </mxCell>
      </root>
    </mxGraphModel>
  </diagram>
</mxfile>
